<?xml version="1.0" standalone="no"?>
<!DOCTYPE svg PUBLIC "-//W3C//DTD SVG 20010904//EN"
 "http://www.w3.org/TR/2001/REC-SVG-20010904/DTD/svg10.dtd">
<svg version="1.0" xmlns="http://www.w3.org/2000/svg"
 width="300.000000pt" height="300.000000pt" viewBox="0 0 300.000000 300.000000"
 preserveAspectRatio="xMidYMid meet">

<g transform="translate(0.000000,300.000000) scale(0.100000,-0.100000)"
fill="#000000" stroke="none">
<path d="M0 2840 l0 -160 40 0 c30 0 40 -4 40 -16 0 -14 10 -15 78 -9 84 8 97
14 106 49 7 27 49 46 102 46 34 0 34 1 34 45 l0 45 45 0 45 0 0 -40 c0 -33 3
-40 20 -40 17 0 20 7 20 40 0 29 4 40 15 40 8 0 15 5 15 10 0 6 -73 10 -199
10 -173 0 -200 2 -205 16 -3 9 -4 20 0 25 3 5 144 9 325 9 l319 0 0 28 0 27
-171 0 c-149 0 -172 2 -189 17 -21 20 -40 23 -40 8 0 -6 -47 -10 -120 -10 -73
0 -120 4 -120 10 0 6 -33 10 -80 10 l-80 0 0 -160z"/>
<path d="M2750 2990 c0 -6 -51 -10 -134 -10 -74 0 -137 -4 -140 -8 -2 -4 -63
-7 -135 -7 -127 1 -131 0 -125 -20 4 -11 7 -21 9 -23 1 -1 120 -5 264 -9 144
-3 264 -10 266 -14 3 -4 2 -14 -1 -23 -5 -14 -30 -16 -180 -16 -148 0 -174 -2
-174 -15 0 -12 16 -15 80 -15 47 0 80 -4 80 -10 0 -5 18 -10 40 -10 34 0 40
-3 40 -20 0 -12 5 -26 10 -33 6 -7 17 -21 25 -32 11 -16 16 -18 26 -7 21 19
113 15 132 -6 10 -10 17 -23 17 -29 0 -6 7 -16 15 -23 13 -11 15 -8 15 19 l0
31 60 0 60 0 0 145 0 145 -125 0 c-77 0 -125 -4 -125 -10z m164 -89 c9 -14 -4
-41 -19 -41 -15 0 -28 27 -19 41 3 5 11 9 19 9 8 0 16 -4 19 -9z"/>
<path d="M1042 2940 c0 -14 2 -19 5 -12 2 6 2 18 0 25 -3 6 -5 1 -5 -13z"/>
<path d="M1375 2660 c-138 -8 -221 -32 -229 -66 -4 -13 -10 -23 -14 -21 -10 3
-58 -46 -54 -57 2 -5 -4 -6 -13 -3 -9 4 -15 1 -15 -8 0 -8 -11 -31 -25 -51
-14 -20 -25 -43 -25 -50 0 -23 -22 -63 -38 -69 -12 -4 -13 -3 -2 10 22 26 -4
15 -41 -18 -32 -28 -99 -138 -99 -163 0 -5 -12 -20 -25 -33 -14 -13 -25 -27
-25 -33 0 -5 -4 -6 -10 -3 -5 3 -10 0 -10 -9 0 -8 -16 -45 -34 -83 -19 -37
-43 -101 -54 -141 -10 -40 -21 -69 -25 -65 -9 9 -58 -37 -51 -48 3 -5 1 -9 -3
-9 -16 0 -51 -86 -63 -151 -23 -128 14 -227 121 -319 64 -56 73 -60 118 -60
52 0 61 -10 61 -71 0 -39 38 -178 62 -229 26 -55 94 -144 139 -184 18 -17 66
-54 107 -83 175 -126 196 -154 190 -259 -1 -34 0 -65 3 -68 3 -3 58 14 122 40
195 76 378 213 502 374 88 115 170 301 191 438 l7 42 58 0 c51 0 63 4 89 28
16 15 45 38 64 52 21 15 48 51 67 88 29 57 32 71 32 151 0 75 -5 98 -29 152
-31 68 -69 119 -90 119 -13 0 -34 58 -34 92 0 9 -4 20 -10 23 -17 11 -11 29
21 63 41 44 86 144 104 230 16 76 26 318 12 299 -4 -7 -7 11 -5 39 3 47 1 50
-21 52 -14 1 -21 -1 -18 -5 4 -4 -6 -20 -22 -37 -17 -17 -31 -35 -33 -41 -2
-5 -22 -10 -45 -10 -24 1 -37 -3 -30 -7 7 -4 -7 -8 -31 -8 -23 0 -51 5 -61 12
-15 9 -29 9 -61 -1 -23 -7 -45 -10 -48 -7 -3 3 2 6 11 6 9 0 19 5 23 12 4 7 3
8 -5 4 -6 -4 -33 0 -59 8 -52 17 -153 45 -192 52 -13 3 -27 9 -30 13 -3 5 -21
11 -40 14 -19 3 -53 10 -75 17 -22 7 -55 14 -74 17 -20 3 -28 8 -21 13 6 4
-12 6 -42 4 -39 -3 -47 -1 -28 5 25 9 24 9 -5 8 -16 0 -80 -3 -140 -7z m8
-680 c84 -41 185 -81 247 -99 l105 -30 -62 0 c-80 -1 -104 -13 -138 -67 -22
-35 -34 -44 -56 -44 -22 0 -32 8 -50 40 -35 61 -64 70 -232 70 -149 0 -187 -7
-223 -41 -20 -19 -21 -19 -38 0 -10 11 -15 27 -12 38 10 31 128 140 186 172
83 46 109 42 273 -39z m-578 -47 c-4 -25 -10 -33 -21 -29 -8 3 -14 -1 -14 -9
0 -8 -4 -15 -10 -15 -13 0 -13 3 7 44 9 19 21 32 26 29 6 -3 7 -1 4 5 -4 5 -4
18 0 29 7 17 8 17 11 0 2 -11 1 -35 -3 -54z m1415 -71 c0 -15 -2 -15 -10 -2
-13 20 -13 33 0 25 6 -3 10 -14 10 -23z m-200 -52 c-11 -21 -12 -21 -32 -3
-20 18 -20 18 8 24 37 7 38 5 24 -21z m-1251 -82 c-1 -24 -4 -33 -6 -20 -12
60 -18 6 -17 -145 l1 -168 -7 180 c-3 99 -4 183 -2 188 2 4 10 7 18 7 10 0 14
-12 13 -42z m1471 17 c0 -15 -5 -24 -12 -22 -10 1 -13 -38 -15 -160 -2 -101 1
-163 7 -163 13 0 13 -37 -1 -45 -17 -11 -25 5 -9 16 11 8 12 12 3 16 -10 3
-13 52 -13 194 0 182 1 189 20 189 15 0 20 -7 20 -25z m-1300 -136 c0 -88 22
-149 63 -171 31 -16 155 -13 225 7 107 30 193 109 208 192 6 31 9 33 45 33 28
0 39 -4 39 -15 0 -31 50 -114 90 -148 77 -66 263 -105 335 -71 59 27 75 64 75
166 0 48 5 90 10 93 7 4 10 -55 10 -169 0 -198 6 -184 -88 -206 -87 -20 -172
-15 -228 13 -85 43 -125 79 -145 127 l-18 45 0 -35 -1 -35 -80 0 -80 0 -1 40
-1 40 -14 -47 c-12 -37 -25 -54 -66 -84 -111 -79 -207 -97 -329 -61 l-56 17
-6 97 c-10 148 -9 265 3 258 6 -3 10 -42 10 -86z m-278 11 c-5 -64 -5 -64 -18
-35 l-13 30 -1 -40 c-1 -22 -4 -34 -7 -27 -2 6 -9 12 -15 12 -6 0 -7 -7 -4
-16 3 -8 2 -12 -4 -9 -12 7 -4 47 18 90 14 29 43 68 47 63 1 -2 0 -32 -3 -68z
m1689 9 c10 -21 18 -53 18 -71 -2 -31 -2 -31 -6 -5 -2 15 -8 25 -13 22 -5 -3
-12 0 -16 6 -4 8 -3 9 4 5 16 -10 14 5 -3 28 -15 20 -15 20 -16 0 -1 -21 -16
27 -18 60 -1 16 1 16 15 5 8 -7 24 -30 35 -50z m-1584 -191 c-2 -35 -3 -9 -3
57 0 66 1 94 3 63 2 -32 2 -86 0 -120z m1590 50 c-3 -7 -5 -2 -5 12 0 14 2 19
5 13 2 -7 2 -19 0 -25z m-1740 0 c-3 -8 -6 -5 -6 6 -1 11 2 17 5 13 3 -3 4
-12 1 -19z m40 -45 c-3 -10 -5 -4 -5 12 0 17 2 24 5 18 2 -7 2 -21 0 -30z m93
-67 c0 -8 6 -17 13 -19 7 -4 6 -6 -4 -6 -9 -1 -19 8 -22 19 -3 11 -1 20 4 20
5 0 9 -6 9 -14z m795 -25 c22 -10 65 -34 95 -53 88 -55 116 -63 220 -62 69 0
111 6 153 21 32 11 60 17 62 13 6 -9 -14 -33 -45 -54 l-25 -18 25 7 c14 3 20
3 14 -2 -6 -4 -18 -21 -27 -38 -41 -79 -174 -149 -359 -189 -45 -10 -32 -26
20 -26 l47 -1 -28 -15 c-15 -8 -77 -26 -138 -38 -108 -23 -128 -30 -117 -42
10 -9 111 -34 141 -34 44 0 25 -13 -57 -40 -42 -14 -76 -28 -76 -31 0 -23 154
-36 229 -20 30 6 56 10 58 7 7 -7 -151 -65 -220 -81 -71 -16 -196 -11 -149 6
37 14 25 26 -34 32 -49 5 -180 56 -194 75 -3 4 -25 23 -50 42 -53 40 -61 51
-55 67 2 7 -2 10 -11 6 -11 -4 -15 0 -13 13 1 10 -5 35 -14 54 -8 19 -12 36
-8 38 4 1 -11 22 -34 47 -77 80 -54 83 26 3 71 -72 99 -91 99 -70 0 5 -11 18
-25 30 -14 13 -22 28 -19 37 4 8 -1 17 -10 21 -9 3 -16 12 -16 20 0 8 -4 14
-10 14 -5 0 -10 8 -10 18 0 10 -11 33 -25 52 -14 19 -25 39 -25 46 0 7 -12 21
-27 32 -16 11 -25 23 -22 26 3 3 41 -3 84 -14 43 -11 104 -20 137 -20 62 0 69
-6 38 -33 -22 -19 -26 -42 -9 -53 7 -4 22 7 36 25 13 17 31 31 39 31 7 0 28
14 46 31 l33 31 -40 -28 -40 -28 32 35 c54 58 183 128 238 128 11 0 38 -8 60
-18z m-569 -428 c-7 -7 -26 7 -26 19 0 6 6 6 15 -2 9 -7 13 -15 11 -17z"/>
<path d="M2450 2581 c0 -5 5 -13 10 -16 6 -3 10 -2 10 4 0 5 -4 13 -10 16 -5
3 -10 2 -10 -4z"/>
<path d="M0 2570 c0 -5 18 -10 40 -10 22 0 40 5 40 10 0 6 -18 10 -40 10 -22
0 -40 -4 -40 -10z"/>
<path d="M2800 2510 c0 -5 5 -10 10 -10 6 0 10 5 10 10 0 6 -4 10 -10 10 -5 0
-10 -4 -10 -10z"/>
<path d="M2451 2184 c0 -11 3 -14 6 -6 3 7 2 16 -1 19 -3 4 -6 -2 -5 -13z"/>
<path d="M2957 362 c1 -8 3 -18 3 -23 0 -5 9 -9 20 -9 11 0 20 7 20 15 0 8 -9
15 -19 15 -11 0 -21 3 -24 8 -2 4 -2 1 0 -6z"/>
<path d="M240 215 c0 -8 7 -15 16 -15 14 0 14 3 4 15 -7 8 -14 15 -16 15 -2 0
-4 -7 -4 -15z"/>
<path d="M2701 217 c-7 -10 -24 -17 -37 -17 -17 0 -24 -6 -24 -20 0 -19 7 -20
123 -22 67 -1 103 -3 80 -5 -29 -3 -43 -9 -43 -19 0 -10 -12 -14 -40 -14 -33
0 -40 -3 -40 -20 0 -19 -7 -20 -160 -20 -146 0 -160 -2 -160 -17 0 -10 -3 -28
-6 -40 -4 -14 -2 -23 5 -23 6 0 11 9 11 20 0 18 7 20 75 20 68 0 75 -2 75 -20
0 -19 7 -20 220 -20 l220 0 0 100 0 100 -60 0 c-47 0 -60 -3 -60 -15 0 -11
-11 -15 -40 -15 -29 0 -40 4 -40 15 0 11 -11 15 -39 15 -29 0 -40 5 -43 17 -3
15 -4 15 -17 0z m195 -116 c-13 -14 -24 -17 -39 -12 -39 14 -31 31 14 31 41 0
42 -1 25 -19z"/>
<path d="M400 160 c0 -5 -18 -10 -40 -10 -29 0 -40 -4 -40 -15 0 -12 14 -15
65 -15 68 0 77 6 47 33 -21 19 -32 22 -32 7z"/>
<path d="M0 135 c0 -11 11 -15 40 -15 29 0 40 -4 40 -15 0 -11 -11 -15 -40
-15 l-40 0 0 -45 0 -45 185 0 c178 0 185 1 185 20 0 15 -7 20 -25 20 -16 0
-25 6 -25 15 0 11 -11 15 -40 15 -36 0 -40 3 -40 25 0 23 -4 25 -40 25 -29 0
-40 4 -40 15 0 12 -16 15 -80 15 -64 0 -80 -3 -80 -15z"/>
<path d="M2166 59 c4 -7 62 -4 70 3 2 3 -13 5 -35 4 -22 0 -37 -4 -35 -7z"/>
<path d="M400 20 c0 -19 7 -20 120 -20 113 0 120 1 120 20 0 19 -7 20 -120 20
-113 0 -120 -1 -120 -20z"/>
</g>
</svg>
